<svg xmlns="http://www.w3.org/2000/svg" viewBox="0 0 64 64" fill="none"><path d="M48 21L51 15" stroke="#29352B" stroke-width="2.2" stroke-linecap="round"/><path d="M50 17C45 10 49 5 58 5C58 12 55 16 50 17Z" fill="#59634C"/><g transform="rotate(-32 32 34)"><path d="M7 34C12 31 12 23 23 19C34 15 47 21 51 29C52 31 55 33 57 34C55 35 52 37 51 39C47 47 34 53 23 49C12 45 12 37 7 34Z" fill="#F3DF38" stroke="#29352B" stroke-width="2.2" stroke-linejoin="round"/><path d="M18 30C21 25 27 23 33 24" stroke="#FFFEFA" stroke-width="2.8" stroke-linecap="round"/></g></svg>